# xmcd
#
# Track frame offsets:
#	150
#	11301
#	30149
#	38474
#	54360
#	66091
#	80190
#	91741
#	97517
#	108205
#	112385
#	123091
#	130814
#	152475
#	156466
#	163442
#	168131
#	186467
#	200101
#	206568
#	225689
#	233491
#	239229
#	247208
#	252294
#
# Disc length: 3580 seconds
#
# Revision: 1
# Processed by: cddbd v1.5.2PL0 Copyright (c) Steve Scherf et al.
# Submitted via: audiograbber 1.83.01
#
DISCID=490dfa19
DTITLE=Ольга Макеева - Ушедшие ловить ветер
DYEAR=2009
DGENRE=Blues
TTITLE0=Ковчег
TTITLE1=Родина-мать
TTITLE2=Песенка о короле
TTITLE3=Я не смотрю телевизор...
TTITLE4=Отчаянно близорук
TTITLE5=Завтра начнется война
TTITLE6=Тот май
TTITLE7=Я молчу...
TTITLE8=Такая короткая жизнь
TTITLE9=Еще не назначен срок...
TTITLE10=Дети мечты
TTITLE11=Вечер пятницы
TTITLE12=Ничего не происходит
TTITLE13=Мелочи быта
TTITLE14=Мне нечего тебе сказать
TTITLE15=Утренний человек
TTITLE16=Кукла Наташа
TTITLE17=Из бытия в небытие
TTITLE18=Были мне знаки, были...
TTITLE19=Старый, седой паяц
TTITLE20=Я вас люблю, друзья мои
TTITLE21=Задыхаясь от слов чужих...
TTITLE22=Натянут лук разлук
TTITLE23=Не скажи, как черная ночь черна...
TTITLE24=Ушедшие ловить ветер
EXTD=
EXTT0=
EXTT1=
EXTT2=
EXTT3=
EXTT4=
EXTT5=
EXTT6=
EXTT7=
EXTT8=
EXTT9=
EXTT10=
EXTT11=
EXTT12=
EXTT13=
EXTT14=
EXTT15=
EXTT16=
EXTT17=
EXTT18=
EXTT19=
EXTT20=
EXTT21=
EXTT22=
EXTT23=
EXTT24=
PLAYORDER=
